<?xml version="1.0" standalone="no"?>
<!DOCTYPE svg PUBLIC "-//W3C//DTD SVG 20010904//EN"
 "http://www.w3.org/TR/2001/REC-SVG-20010904/DTD/svg10.dtd">
<svg version="1.0" xmlns="http://www.w3.org/2000/svg"
 width="300.000000pt" height="300.000000pt" viewBox="0 0 300.000000 300.000000"
 preserveAspectRatio="xMidYMid meet">
<metadata>
Created by potrace 1.10, written by Peter Selinger 2001-2011
</metadata>
<g transform="translate(0.000000,300.000000) scale(0.100000,-0.100000)"
fill="#000000" stroke="none">
<path d="M860 2420 c-470 -15 -561 -32 -656 -125 -76 -74 -113 -161 -140 -330
-20 -122 -29 -819 -13 -985 30 -321 86 -446 231 -515 134 -65 266 -72 1208
-73 1085 -1 1184 9 1304 133 123 126 151 298 151 920 -1 365 -13 520 -51 655
-63 217 -184 295 -479 306 -77 3 -156 7 -175 9 -82 9 -1109 13 -1380 5z m1355
-35 c392 -13 444 -23 546 -114 53 -47 82 -102 110 -210 61 -235 66 -992 9
-1278 -33 -166 -111 -270 -233 -313 -31 -11 -105 -25 -164 -31 -135 -15 -1634
-21 -1848 -8 -311 18 -414 65 -483 219 -66 146 -77 260 -76 770 0 360 3 442
18 535 44 266 126 368 327 406 166 31 1175 44 1794 24z"/>
<path d="M1170 1911 c-6 -13 -10 -177 -10 -465 0 -433 1 -447 20 -466 19 -19
22 -19 57 -5 21 9 72 36 115 60 42 25 79 45 82 45 3 0 80 42 173 93 208 116
261 145 342 188 58 31 111 73 111 88 -1 20 -34 45 -130 98 -242 134 -338 187
-425 233 -127 67 -202 109 -240 132 -40 24 -81 23 -95 -1z m50 -11 c14 -11 28
-20 32 -20 3 0 37 -17 75 -39 75 -42 429 -237 592 -325 57 -31 108 -56 112
-56 27 0 -8 -24 -144 -97 -339 -184 -634 -346 -664 -365 l-33 -19 -2 470 c-2
259 -1 471 2 471 3 0 16 -9 30 -20z"/>
</g>
</svg>
